<svg xmlns="http://www.w3.org/2000/svg" xmlns:xlink="http://www.w3.org/1999/xlink" width="500" zoomAndPan="magnify" viewBox="0 0 375 374.999991" height="500" preserveAspectRatio="xMidYMid meet" version="1.0"><defs><g/><clipPath id="01d78774f4"><path d="M 0 0 L 365 0 L 365 375 L 0 375 Z M 0 0 " clip-rule="nonzero"/></clipPath><clipPath id="c139876e7b"><rect x="0" width="375" y="0" height="375"/></clipPath></defs><g transform="matrix(1, 0, 0, 1, 0, 0)"><g clip-path="url(#c139876e7b)"><g clip-path="url(#01d78774f4)"><g fill="#006acc" fill-opacity="1"><g transform="translate(-33.435962, 252.690759)"><g><path d="M 99.46875 55.140625 C 82.082031 45.492188 68.984375 33.875 60.171875 20.28125 C 51.359375 6.695312 46.75 -7.578125 46.34375 -22.546875 C 45.9375 -37.515625 49.5 -51.796875 57.03125 -65.390625 C 65.46875 -80.609375 76.441406 -92.550781 89.953125 -101.21875 C 103.460938 -109.894531 118.234375 -116.191406 134.265625 -120.109375 C 133.253906 -129.191406 133.648438 -138.5625 135.453125 -148.21875 C 137.253906 -157.875 140.640625 -167.191406 145.609375 -176.171875 C 155.554688 -194.109375 168.570312 -207.328125 184.65625 -215.828125 C 200.738281 -224.328125 218.492188 -227.988281 237.921875 -226.8125 C 257.347656 -225.632812 276.847656 -219.625 296.421875 -208.78125 L 397.53125 -152.734375 L 372.59375 -121.234375 L 268.625 -178.875 C 251.238281 -188.507812 235.007812 -191.109375 219.9375 -186.671875 C 204.863281 -182.242188 193.03125 -172.28125 184.4375 -156.78125 C 181.570312 -151.613281 179.367188 -146.523438 177.828125 -141.515625 C 176.296875 -136.503906 175.628906 -131.285156 175.828125 -125.859375 C 192.035156 -127.523438 207.304688 -126.867188 221.640625 -123.890625 C 235.984375 -120.921875 249.816406 -115.742188 263.140625 -108.359375 C 275.910156 -101.285156 285.753906 -93.253906 292.671875 -84.265625 C 299.597656 -75.273438 303.65625 -65.921875 304.84375 -56.203125 C 306.03125 -46.484375 304.0625 -37.003906 298.9375 -27.765625 C 293.96875 -18.785156 286.601562 -11.582031 276.84375 -6.15625 C 267.082031 -0.738281 255.804688 1.796875 243.015625 1.453125 C 230.234375 1.117188 216.78125 -2.960938 202.65625 -10.796875 C 190.957031 -17.273438 181.171875 -24.46875 173.296875 -32.375 C 165.429688 -40.289062 159.148438 -48.660156 154.453125 -57.484375 C 149.753906 -66.316406 145.976562 -74.894531 143.125 -83.21875 C 134.226562 -79.976562 126.046875 -75.628906 118.578125 -70.171875 C 111.117188 -64.722656 104.828125 -57.378906 99.703125 -48.140625 C 95.335938 -40.265625 93.101562 -31.910156 93 -23.078125 C 92.894531 -14.242188 95.582031 -5.644531 101.0625 2.71875 C 106.550781 11.09375 115.28125 18.597656 127.25 25.234375 L 219.375 76.296875 L 194.703125 107.390625 Z M 220.578125 -40.28125 C 229.554688 -35.300781 237.851562 -33.273438 245.46875 -34.203125 C 253.09375 -35.140625 258.5625 -38.597656 261.875 -44.578125 C 265.34375 -50.828125 265.332031 -57.050781 261.84375 -63.25 C 258.351562 -69.445312 252.125 -75.03125 243.15625 -80 C 234.445312 -84.820312 225.03125 -88.351562 214.90625 -90.59375 C 204.78125 -92.832031 193.289062 -93.25 180.4375 -91.84375 C 183.582031 -80.863281 188.476562 -70.953125 195.125 -62.109375 C 201.769531 -53.273438 210.253906 -46 220.578125 -40.28125 Z M 220.578125 -40.28125 "/></g></g></g></g></g></g></svg>