<svg xmlns="http://www.w3.org/2000/svg" xmlns:xlink="http://www.w3.org/1999/xlink" width="500" zoomAndPan="magnify" viewBox="0 0 375 374.999991" height="500" preserveAspectRatio="xMidYMid meet" version="1.0"><defs><clipPath id="11336a3285"><path d="M 4.695312 4.695312 L 370.304688 4.695312 L 370.304688 370.304688 L 4.695312 370.304688 Z M 4.695312 4.695312 " clip-rule="nonzero"/></clipPath><clipPath id="80f4a03443"><path d="M 293.042969 35.046875 L 260.621094 114.378906 L 339.953125 81.265625 L 370.304688 154.386719 L 290.972656 187.5 L 370.304688 220.613281 L 339.953125 293.734375 L 260.621094 260.621094 L 293.042969 339.953125 L 219.921875 370.304688 L 187.5 290.972656 L 154.386719 370.304688 L 81.265625 339.953125 L 114.378906 260.621094 L 35.046875 293.734375 L 4.695312 220.613281 L 84.027344 187.5 L 4.695312 154.386719 L 35.046875 81.265625 L 114.378906 114.378906 L 81.265625 35.046875 L 154.386719 4.695312 L 187.5 84.027344 L 219.921875 4.695312 Z M 293.042969 35.046875 " clip-rule="nonzero"/></clipPath><clipPath id="bb9c441382"><path d="M 0.695312 0.695312 L 366.304688 0.695312 L 366.304688 366.304688 L 0.695312 366.304688 Z M 0.695312 0.695312 " clip-rule="nonzero"/></clipPath><clipPath id="f765af7b3d"><path d="M 289.042969 31.046875 L 256.621094 110.378906 L 335.953125 77.265625 L 366.304688 150.386719 L 286.972656 183.5 L 366.304688 216.613281 L 335.953125 289.734375 L 256.621094 256.621094 L 289.042969 335.953125 L 215.921875 366.304688 L 183.5 286.972656 L 150.386719 366.304688 L 77.265625 335.953125 L 110.378906 256.621094 L 31.046875 289.734375 L 0.695312 216.613281 L 80.027344 183.5 L 0.695312 150.386719 L 31.046875 77.265625 L 110.378906 110.378906 L 77.265625 31.046875 L 150.386719 0.695312 L 183.5 80.027344 L 215.921875 0.695312 Z M 289.042969 31.046875 " clip-rule="nonzero"/></clipPath><clipPath id="a69292cd49"><rect x="0" width="367" y="0" height="367"/></clipPath></defs><g clip-path="url(#11336a3285)"><g clip-path="url(#80f4a03443)"><g transform="matrix(1, 0, 0, 1, 4, 4)"><g clip-path="url(#a69292cd49)"><g clip-path="url(#bb9c441382)"><g clip-path="url(#f765af7b3d)"><path fill="#ffffff" d="M 0.695312 0.695312 L 366.304688 0.695312 L 366.304688 366.304688 L 0.695312 366.304688 Z M 0.695312 0.695312 " fill-opacity="1" fill-rule="nonzero"/></g></g></g></g></g></g></svg>